<?xml version="1.0" encoding="utf-8"?>
<!-- Svg Vector Icons : http://www.onlinewebfonts.com/icon -->
<!DOCTYPE svg PUBLIC "-//W3C//DTD SVG 1.1//EN" "http://www.w3.org/Graphics/SVG/1.1/DTD/svg11.dtd">
<svg version="1.1" xmlns="http://www.w3.org/2000/svg" xmlns:xlink="http://www.w3.org/1999/xlink" x="0px" y="0px" viewBox="0 0 256 256" enable-background="new 0 0 256 256" xml:space="preserve">
<metadata> Svg Vector Icons : http://www.onlinewebfonts.com/icon </metadata>
<g><g><path fill="#000000" d="M162.5,82.7h15.1l-0.8,4.2h-15c0,0.9-0.1,2,0,3h14.5l-0.8,4.2h-13.1c1.9,7.6,8.7,9.6,15.5,6.7l1.9,7c-12.5,5.1-25.2-1.8-27.7-13.8h-5.5l0.8-4.2h4.2c0-1,0-2,0.1-3H148l0.8-4.2h3.6c2.6-11.5,12.5-18,27.9-13.1l-1.7,6.9C170.8,74.1,164.6,74.7,162.5,82.7z M100.5,118.4L72,90L124,38v17.4h79.9v66.1h-39.5l11.6,11.6h39.5V43.8h-79.9V10L55.5,90L84,118.4H100.5z M124.1,246v-27.6H40.5v-84.9h83.6v-27.6l70.1,70L124.1,246z M104,184.3c0-9.3-9.9-11.9-16.8-15c-3.3-1.7-3-5.3,2-5.6c4-0.2,8.2,1.3,10.8,2.2c0,0,1.6-7,2-8.6c-3.7-1.2-6.9-1.7-10.1-2v-4.8h-7.3v5.2c-8.1,1.8-11.3,7.7-11.3,12.1c0,10.5,12.5,12.2,16.2,13.8c4.3,1.9,3.4,5.2-0.3,5.9c-4.2,0.9-9.8-1-13.8-2.5l-2.4,8.5c3.4,1.9,8.1,3.2,11.6,3.5v4.6h7.3v-5.1C98.4,195.5,104,191.4,104,184.3z"/></g></g>
</svg>